{
    "asset" : {
        "generator" : "Khronos glTF Blender I/O v1.4.40",
        "version" : "2.0"
    },
    "scene" : 0,
    "scenes" : [
        {
            "name" : "Scene",
            "nodes" : [
                25
            ]
        }
    ],
    "nodes" : [
        {
            "name" : "head",
            "rotation" : [
                -0.005868316162377596,
                -0.03235439211130142,
                0.17837534844875336,
                0.9834129214286804
            ],
            "scale" : [
                1,
                0.9999998807907104,
                0.9999999403953552
            ],
            "translation" : [
                -8.390830998905585e-07,
                0.8699913620948792,
                -6.119462270248732e-09
            ]
        },
        {
            "children" : [
                0
            ],
            "name" : "neck",
            "rotation" : [
                0.0058683170937001705,
                0.032354407012462616,
                -0.17837531864643097,
                0.9834129214286804
            ],
            "scale" : [
                1.0000001192092896,
                1.0000001192092896,
                1
            ],
            "translation" : [
                -7.876907943682454e-07,
                0.8455898761749268,
                6.108022887474363e-08
            ]
        },
        {
            "name" : "arm.L",
            "rotation" : [
                -0.0054151988588273525,
                -0.06393364816904068,
                0.03169527277350426,
                0.9974360466003418
            ],
            "scale" : [
                1,
                1.0000001192092896,
                1.0000001192092896
            ],
            "translation" : [
                -8.559576514244327e-08,
                2.5093555450439453,
                -1.1896391072241386e-07
            ]
        },
        {
            "children" : [
                2
            ],
            "name" : "shoulder.L",
            "rotation" : [
                -0.47259846329689026,
                0.5192015767097473,
                -0.5689453482627869,
                0.428230881690979
            ],
            "scale" : [
                1,
                1,
                0.9999999403953552
            ],
            "translation" : [
                0.9536585211753845,
                0.5445364117622375,
                -1.9066758155822754
            ]
        },
        {
            "name" : "arm.R",
            "rotation" : [
                -0.00541519932448864,
                0.06393367797136307,
                -0.03169526904821396,
                0.9974361062049866
            ],
            "scale" : [
                1,
                1.0000001192092896,
                1.0000001192092896
            ],
            "translation" : [
                5.5707527479853525e-08,
                2.5093555450439453,
                -1.4479556398327986e-07
            ]
        },
        {
            "children" : [
                4
            ],
            "name" : "shoulder.R",
            "rotation" : [
                0.5689459443092346,
                0.42823174595832825,
                0.47259756922721863,
                0.5192009806632996
            ],
            "scale" : [
                1.0000001192092896,
                1,
                1
            ],
            "translation" : [
                0.9536644816398621,
                0.544536828994751,
                1.9066733121871948
            ]
        },
        {
            "children" : [
                1,
                3,
                5
            ],
            "name" : "spine",
            "rotation" : [
                6.27555200480856e-05,
                -0.001579802599735558,
                -0.03973100706934929,
                0.9992091655731201
            ],
            "scale" : [
                1,
                0.9999998211860657,
                1
            ],
            "translation" : [
                1.507861924210374e-08,
                1.6002562046051025,
                1.397353344145813e-10
            ]
        },
        {
            "children" : [
                6
            ],
            "name" : "back",
            "rotation" : [
                -0.5202903151512146,
                -0.47898024320602417,
                0.5186498165130615,
                0.48049789667129517
            ],
            "scale" : [
                0.9999999403953552,
                0.9999999403953552,
                1.0000001192092896
            ],
            "translation" : [
                1.2530679271982592e-10,
                1.2262293100357056,
                -5.324223728564448e-09
            ]
        },
        {
            "name" : "taill.07",
            "rotation" : [
                -2.1792300685774535e-05,
                3.5709922485693824e-07,
                -5.918898295931285e-07,
                1
            ],
            "scale" : [
                1.0000001192092896,
                0.9999998211860657,
                0.9999999403953552
            ],
            "translation" : [
                1.9309469578843164e-08,
                1.3237295150756836,
                -2.4393554554080765e-07
            ]
        },
        {
            "children" : [
                8
            ],
            "name" : "taill.06",
            "rotation" : [
                0.00012156229058746248,
                2.76348231409429e-07,
                3.2258797091344604e-06,
                1
            ],
            "scale" : [
                1.0000001192092896,
                0.9999999403953552,
                1
            ],
            "translation" : [
                1.0650580861693015e-08,
                1.3578943014144897,
                -5.121585786582727e-07
            ]
        },
        {
            "children" : [
                9
            ],
            "name" : "taill.05",
            "rotation" : [
                0.0005414743791334331,
                -6.31936757145013e-07,
                1.3963385754323099e-05,
                0.9999998807907104
            ],
            "scale" : [
                1,
                1,
                0.9999998807907104
            ],
            "translation" : [
                -1.0874342315503327e-08,
                1.3550466299057007,
                -2.1904382663251454e-07
            ]
        },
        {
            "children" : [
                10
            ],
            "name" : "taill.04",
            "rotation" : [
                0.000926629058085382,
                2.3648310332191613e-07,
                2.4038854462560266e-05,
                0.9999995827674866
            ],
            "scale" : [
                0.9999999403953552,
                1,
                0.9999999403953552
            ],
            "translation" : [
                -2.3473175403410096e-08,
                1.3664344549179077,
                -2.5629745437072415e-07
            ]
        },
        {
            "children" : [
                11
            ],
            "name" : "taill.03",
            "rotation" : [
                -0.0007021495257504284,
                -5.181071855986374e-07,
                -1.8166141671827063e-05,
                0.9999997615814209
            ],
            "scale" : [
                0.9999999403953552,
                1.0000001192092896,
                1.000000238418579
            ],
            "translation" : [
                4.876678616483332e-09,
                1.3778209686279297,
                -3.680568170238985e-07
            ]
        },
        {
            "children" : [
                12
            ],
            "name" : "taill.02",
            "rotation" : [
                -0.011703011579811573,
                -9.95141381281428e-05,
                -0.0003046527854166925,
                0.9999314546585083
            ],
            "scale" : [
                1.0000001192092896,
                1.0000001192092896,
                0.9999999403953552
            ],
            "translation" : [
                -2.183690028800811e-08,
                1.3548961877822876,
                -3.0341499268615735e-07
            ]
        },
        {
            "children" : [
                13
            ],
            "name" : "tail.01",
            "rotation" : [
                0.021907895803451538,
                -0.1483059525489807,
                0.003873851615935564,
                0.9886912703514099
            ],
            "scale" : [
                1,
                1.0000001192092896,
                1.0000001192092896
            ],
            "translation" : [
                8.840064680271098e-09,
                1.627307415008545,
                6.567929062839539e-07
            ]
        },
        {
            "children" : [
                14
            ],
            "name" : "taill.00",
            "rotation" : [
                0.36873501539230347,
                -0.45246490836143494,
                0.51178377866745,
                0.6303867697715759
            ],
            "scale" : [
                1.0000001192092896,
                1.000000238418579,
                1
            ],
            "translation" : [
                1.1931193455438915e-07,
                1.326497197151184,
                1.2704504115390591e-10
            ]
        },
        {
            "name" : "foot.L",
            "rotation" : [
                -0.04823978990316391,
                -0.31640055775642395,
                -0.4503457546234131,
                0.8335180282592773
            ],
            "scale" : [
                0.9999999403953552,
                0.9999998211860657,
                0.9999998807907104
            ],
            "translation" : [
                8.229630310552238e-08,
                2.5980184078216553,
                3.8710079586223856e-09
            ]
        },
        {
            "children" : [
                16
            ],
            "name" : "leg.L",
            "rotation" : [
                0.01298006996512413,
                -0.008566230535507202,
                -0.10619273781776428,
                0.994223952293396
            ],
            "scale" : [
                1,
                0.9999999403953552,
                0.9999999403953552
            ],
            "translation" : [
                3.2863866294974287e-08,
                3.029481887817383,
                1.7438611621400923e-07
            ]
        },
        {
            "children" : [
                17
            ],
            "name" : "Hip.L",
            "rotation" : [
                0.024019945412874222,
                0.13707304000854492,
                -0.009239984676241875,
                0.9902266263961792
            ],
            "scale" : [
                1,
                0.9999999403953552,
                1
            ],
            "translation" : [
                0.5198941230773926,
                1.9155247211456299,
                0.9509069919586182
            ]
        },
        {
            "name" : "foot.R",
            "rotation" : [
                -0.048239707946777344,
                0.31640052795410156,
                0.4503457844257355,
                0.8335180282592773
            ],
            "scale" : [
                0.9999998211860657,
                0.9999999403953552,
                0.9999998807907104
            ],
            "translation" : [
                -8.904284243271832e-08,
                2.5980186462402344,
                6.061647184196772e-08
            ]
        },
        {
            "children" : [
                19
            ],
            "name" : "leg.R",
            "rotation" : [
                0.012980115599930286,
                0.008566206321120262,
                0.1061926931142807,
                0.994223952293396
            ],
            "scale" : [
                1,
                0.9999999403953552,
                0.9999998807907104
            ],
            "translation" : [
                -8.402429330089944e-08,
                3.029482126235962,
                2.9920425959062413e-07
            ]
        },
        {
            "children" : [
                20
            ],
            "name" : "Hip.R",
            "rotation" : [
                0.009196704253554344,
                0.9904718995094299,
                -0.024036500602960587,
                0.1352892965078354
            ],
            "scale" : [
                1.0000001192092896,
                0.9999999403953552,
                1.0000001192092896
            ],
            "translation" : [
                0.5164656639099121,
                1.9155244827270508,
                -0.9527737498283386
            ]
        },
        {
            "children" : [
                15,
                18,
                21
            ],
            "name" : "waist",
            "rotation" : [
                0.5152266025543213,
                0.4843519330024719,
                0.5142982006072998,
                0.4852237403392792
            ],
            "scale" : [
                1,
                1.000000238418579,
                1.000000238418579
            ],
            "translation" : [
                1.8989254613188677e-12,
                1.226229190826416,
                4.7598027208550775e-07
            ]
        },
        {
            "children" : [
                7,
                22
            ],
            "name" : "root",
            "rotation" : [
                8.791364507487742e-07,
                -0.7071068286895752,
                0.7071068286895752,
                -9.135076197708258e-07
            ],
            "scale" : [
                1,
                0.9999997019767761,
                1
            ],
            "translation" : [
                -1.1920808162813046e-07,
                7.973540306091309,
                1.7583119869232178
            ]
        },
        {
            "mesh" : 0,
            "name" : "lizardman.mesh",
            "skin" : 0
        },
        {
            "children" : [
                24,
                23
            ],
            "name" : "lizardman"
        }
    ],
    "meshes" : [
        {
            "name" : "lizardman",
            "primitives" : [
                {
                    "attributes" : {
                        "POSITION" : 0,
                        "NORMAL" : 1,
                        "TANGENT" : 2,
                        "TEXCOORD_0" : 3,
                        "JOINTS_0" : 4,
                        "WEIGHTS_0" : 5
                    },
                    "indices" : 6
                }
            ]
        }
    ],
    "skins" : [
        {
            "inverseBindMatrices" : 7,
            "joints" : [
                23,
                7,
                6,
                1,
                0,
                3,
                2,
                5,
                4,
                22,
                15,
                14,
                13,
                12,
                11,
                10,
                9,
                8,
                18,
                17,
                16,
                21,
                20,
                19
            ],
            "name" : "lizardman"
        }
    ],
    "accessors" : [
        {
            "bufferView" : 0,
            "componentType" : 5126,
            "count" : 1144,
            "max" : [
                8.344521522521973,
                13.015823364257812,
                12.65132999420166
            ],
            "min" : [
                -8.344521522521973,
                0.00011489259486552328,
                -1.7988569736480713
            ],
            "type" : "VEC3"
        },
        {
            "bufferView" : 1,
            "componentType" : 5126,
            "count" : 1144,
            "type" : "VEC3"
        },
        {
            "bufferView" : 2,
            "componentType" : 5126,
            "count" : 1144,
            "type" : "VEC4"
        },
        {
            "bufferView" : 3,
            "componentType" : 5126,
            "count" : 1144,
            "type" : "VEC2"
        },
        {
            "bufferView" : 4,
            "componentType" : 5121,
            "count" : 1144,
            "type" : "VEC4"
        },
        {
            "bufferView" : 5,
            "componentType" : 5126,
            "count" : 1144,
            "type" : "VEC4"
        },
        {
            "bufferView" : 6,
            "componentType" : 5123,
            "count" : 1668,
            "type" : "SCALAR"
        },
        {
            "bufferView" : 7,
            "componentType" : 5126,
            "count" : 24,
            "type" : "MAT4"
        }
    ],
    "bufferViews" : [
        {
            "buffer" : 0,
            "byteLength" : 13728,
            "byteOffset" : 0
        },
        {
            "buffer" : 0,
            "byteLength" : 13728,
            "byteOffset" : 13728
        },
        {
            "buffer" : 0,
            "byteLength" : 18304,
            "byteOffset" : 27456
        },
        {
            "buffer" : 0,
            "byteLength" : 9152,
            "byteOffset" : 45760
        },
        {
            "buffer" : 0,
            "byteLength" : 4576,
            "byteOffset" : 54912
        },
        {
            "buffer" : 0,
            "byteLength" : 18304,
            "byteOffset" : 59488
        },
        {
            "buffer" : 0,
            "byteLength" : 3336,
            "byteOffset" : 77792
        },
        {
            "buffer" : 0,
            "byteLength" : 1536,
            "byteOffset" : 81128
        }
    ],
    "buffers" : [
        {
            "byteLength" : 82664,
            "uri" : "data:application/octet-stream;base64,"
        }
    ]
}
